<svg width="1600" height="1200" viewBox="0 0 1600 1200" fill="none" xmlns="http://www.w3.org/2000/svg" role="img" aria-labelledby="title desc">
  <title id="title">Rozalab × Carino hero illustration</title>
  <desc id="desc">A premium editorial abstract illustration with layered lab cards, soft gradients, and sculpted ice cream forms.</desc>
  <defs>
    <linearGradient id="bg" x1="240" y1="40" x2="1370" y2="1160" gradientUnits="userSpaceOnUse">
      <stop stop-color="#FBF7F0"/>
      <stop offset="1" stop-color="#F0E2CF"/>
    </linearGradient>
    <linearGradient id="warm" x1="420" y1="120" x2="1240" y2="980" gradientUnits="userSpaceOnUse">
      <stop stop-color="#C48A57" stop-opacity="0.95"/>
      <stop offset="1" stop-color="#E0B96C" stop-opacity="0.98"/>
    </linearGradient>
    <linearGradient id="rose" x1="360" y1="150" x2="1240" y2="960" gradientUnits="userSpaceOnUse">
      <stop stop-color="#B85C72" stop-opacity="0.95"/>
      <stop offset="1" stop-color="#E0A9BA" stop-opacity="0.9"/>
    </linearGradient>
    <linearGradient id="sage" x1="240" y1="100" x2="1320" y2="1040" gradientUnits="userSpaceOnUse">
      <stop stop-color="#2D766D" stop-opacity="0.95"/>
      <stop offset="1" stop-color="#8CC1B6" stop-opacity="0.92"/>
    </linearGradient>
    <linearGradient id="glass" x1="520" y1="220" x2="1080" y2="920" gradientUnits="userSpaceOnUse">
      <stop stop-color="#FFFFFF" stop-opacity="0.88"/>
      <stop offset="1" stop-color="#FFF7EE" stop-opacity="0.58"/>
    </linearGradient>
    <linearGradient id="shadow" x1="420" y1="820" x2="1180" y2="1040" gradientUnits="userSpaceOnUse">
      <stop stop-color="#5D3F2B" stop-opacity="0.2"/>
      <stop offset="1" stop-color="#5D3F2B" stop-opacity="0"/>
    </linearGradient>
    <filter id="blur" x="0" y="0" width="1600" height="1200" filterUnits="userSpaceOnUse" color-interpolation-filters="sRGB">
      <feGaussianBlur stdDeviation="28"/>
    </filter>
    <filter id="softShadow" x="-20%" y="-20%" width="140%" height="140%">
      <feDropShadow dx="0" dy="28" stdDeviation="28" flood-color="#281B13" flood-opacity="0.16"/>
    </filter>
    <clipPath id="cardClip">
      <rect x="138" y="124" width="1324" height="952" rx="52"/>
    </clipPath>
  </defs>

  <rect width="1600" height="1200" fill="url(#bg)"/>
  <g filter="url(#blur)" opacity="0.72">
    <circle cx="306" cy="234" r="168" fill="#E5C59A"/>
    <circle cx="1310" cy="188" r="182" fill="#E7B8C1"/>
    <circle cx="1268" cy="918" r="190" fill="#A6D1C8"/>
  </g>

  <g clip-path="url(#cardClip)">
    <rect x="138" y="124" width="1324" height="952" rx="52" fill="#FFFDF9" opacity="0.58"/>
    <path d="M138 312C314 236 446 194 596 194C720 194 810 244 918 306C1022 366 1122 410 1234 410C1302 410 1366 394 1462 364V1076H138V312Z" fill="url(#glass)" opacity="0.88"/>
    <path d="M184 880C338 808 498 780 650 788C850 798 960 838 1114 848C1268 858 1366 830 1462 790V1076H184V880Z" fill="url(#shadow)" opacity="0.65"/>

    <g filter="url(#softShadow)">
      <rect x="228" y="236" width="420" height="712" rx="40" fill="#FFF9F2" stroke="#EEDFCF"/>
      <rect x="672" y="172" width="600" height="776" rx="44" fill="#FFFDFC" stroke="#E8DAC8"/>
    </g>

    <g opacity="0.95">
      <rect x="272" y="282" width="232" height="36" rx="18" fill="#F3E3CC"/>
      <rect x="272" y="334" width="188" height="22" rx="11" fill="#EED3B6"/>
      <rect x="272" y="370" width="220" height="22" rx="11" fill="#F1E7DA"/>
      <rect x="272" y="406" width="150" height="22" rx="11" fill="#DDB58B"/>
      <rect x="272" y="452" width="276" height="16" rx="8" fill="#D7C4B1"/>
      <rect x="272" y="480" width="248" height="16" rx="8" fill="#E7D7C7"/>
    </g>

    <g transform="translate(310 566)">
      <ellipse cx="130" cy="132" rx="162" ry="54" fill="#2A1C15" opacity="0.1"/>
      <ellipse cx="132" cy="118" rx="118" ry="118" fill="url(#warm)"/>
      <ellipse cx="132" cy="108" rx="102" ry="102" fill="#F4D399"/>
      <ellipse cx="132" cy="88" rx="78" ry="78" fill="#FFF2D2"/>
      <path d="M74 124C84 74 114 46 154 40C194 34 232 56 244 96C224 138 176 160 132 160C100 160 82 150 74 124Z" fill="#FFFFFF" opacity="0.26"/>
      <ellipse cx="132" cy="88" rx="46" ry="46" fill="#F7E7B8"/>
      <path d="M62 180C90 154 114 144 132 144C152 144 176 154 206 180" stroke="#7D583F" stroke-width="8" stroke-linecap="round"/>
    </g>

    <g transform="translate(726 218)">
      <rect x="0" y="0" width="468" height="178" rx="30" fill="#FFF8F0" stroke="#E8D8C4"/>
      <text x="28" y="48" font-family="Inter, Arial, sans-serif" font-size="18" letter-spacing="0.32em" fill="#A16B46">CARINO BRIEF</text>
      <text x="28" y="92" font-family="Fraunces, Georgia, serif" font-size="40" font-weight="600" fill="#19120E">Premium ice cream R&amp;D</text>
      <text x="28" y="128" font-family="Inter, Arial, sans-serif" font-size="22" fill="#6A5B50">Pairing logic, sample development, SOP, and launch readiness.</text>
    </g>

    <g transform="translate(726 438)">
      <rect x="0" y="0" width="214" height="196" rx="26" fill="#FFF9F4" stroke="#E9D9C5"/>
      <rect x="244" y="0" width="214" height="196" rx="26" fill="#FFF9F4" stroke="#E9D9C5"/>
      <rect x="488" y="0" width="214" height="196" rx="26" fill="#FFF9F4" stroke="#E9D9C5"/>

      <circle cx="108" cy="70" r="32" fill="url(#rose)"/>
      <circle cx="352" cy="70" r="32" fill="url(#sage)"/>
      <circle cx="596" cy="70" r="32" fill="url(#warm)"/>

      <text x="28" y="138" font-family="Fraunces, Georgia, serif" font-size="28" font-weight="600" fill="#19120E">Pairing</text>
      <text x="28" y="168" font-family="Inter, Arial, sans-serif" font-size="16" fill="#6B5C51">Floral, tropical, roasted</text>

      <text x="272" y="138" font-family="Fraunces, Georgia, serif" font-size="28" font-weight="600" fill="#19120E">Bench</text>
      <text x="272" y="168" font-family="Inter, Arial, sans-serif" font-size="16" fill="#6B5C51">Method, texture, stability</text>

      <text x="516" y="138" font-family="Fraunces, Georgia, serif" font-size="28" font-weight="600" fill="#19120E">Launch</text>
      <text x="516" y="168" font-family="Inter, Arial, sans-serif" font-size="16" fill="#6B5C51">Menu, scale, service</text>
    </g>

    <g opacity="0.82">
      <circle cx="1246" cy="258" r="24" fill="#C88B62"/>
      <circle cx="1294" cy="294" r="12" fill="#C88B62"/>
      <circle cx="1230" cy="346" r="16" fill="#B75B73"/>
      <circle cx="1308" cy="408" r="20" fill="#2D766D"/>
      <circle cx="1208" cy="474" r="14" fill="#D1A054"/>
      <path d="M1220 258H1338" stroke="#8D6A55" stroke-width="2" stroke-dasharray="8 8"/>
      <path d="M1244 258C1280 268 1288 284 1292 294" stroke="#8D6A55" stroke-width="2" stroke-dasharray="8 8"/>
      <path d="M1238 344C1268 364 1290 384 1308 408" stroke="#8D6A55" stroke-width="2" stroke-dasharray="8 8"/>
      <path d="M1290 294C1302 328 1298 356 1308 408" stroke="#8D6A55" stroke-width="2" stroke-dasharray="8 8"/>
      <path d="M1308 408C1284 444 1248 466 1208 474" stroke="#8D6A55" stroke-width="2" stroke-dasharray="8 8"/>
    </g>

    <g opacity="0.36">
      <rect x="226" y="208" width="1230" height="820" rx="46" stroke="#D7C3AD" stroke-width="1.5" fill="none"/>
      <path d="M376 102C518 82 642 74 798 74C968 74 1100 86 1242 112" stroke="#D8C5B1" stroke-width="1.4" stroke-dasharray="6 10"/>
      <path d="M218 540H1428" stroke="#D9CAB8" stroke-width="1.4" stroke-dasharray="6 10"/>
    </g>
  </g>
</svg>
